<svg width="50.000000" height="74.000000" viewBox="0 0 50 74" fill="none" xmlns="http://www.w3.org/2000/svg" xmlns:xlink="http://www.w3.org/1999/xlink">
	<desc>
			Created with Pixso.
	</desc>
	<defs/>
	<path id="Vector" d="M25.9 -5.73e-5C23.1 0 20.42 1.1 18.44 3.05C16.46 5.01 15.35 7.66 15.35 10.43L15.35 15.17L10.55 15.17C9.17 15.17 7.79 15.44 6.51 15.96C5.23 16.49 4.06 17.26 3.08 18.23C2.1 19.2 1.32 20.35 0.79 21.62C0.26 22.88 -0.01 24.24 -0.01 25.61L-0.01 36.04L15.35 36.04L15.35 45.53L10.55 45.53C7.75 45.52 5.06 46.62 3.08 48.58C1.1 50.54 -0.01 53.19 -0.01 55.96L-0.01 73.99L10.56 73.99C11.94 73.99 13.31 73.72 14.59 73.19C15.87 72.67 17.04 71.9 18.02 70.93C19 69.96 19.77 68.81 20.3 67.54C20.83 66.28 21.1 64.92 21.1 63.55L21.12 63.55L21.12 56.66L21.09 56.67L21.09 12.79L21.11 12.79L21.11 10.43C21.11 9.17 21.62 7.97 22.52 7.08C23.42 6.19 24.63 5.68 25.91 5.68L44.24 5.68L44.24 10.43C44.24 11.69 43.73 12.89 42.83 13.78C41.93 14.67 40.71 15.17 39.44 15.17L23.28 15.17L23.28 20.86L39.44 20.86C42.24 20.86 44.92 19.76 46.9 17.81C48.88 15.85 49.99 13.2 50 10.43L50 -0.01L25.9 -5.73e-5ZM15.35 30.35L5.75 30.35L5.75 25.61C5.76 24.35 6.26 23.15 7.16 22.25C8.06 21.36 9.28 20.86 10.56 20.86L15.35 20.86L15.35 30.35ZM15.35 63.56C15.35 64.81 14.84 66.02 13.94 66.91C13.04 67.8 11.82 68.3 10.55 68.3L5.75 68.3L5.75 55.96C5.75 54.71 6.26 53.5 7.16 52.61C8.06 51.72 9.28 51.22 10.55 51.22L15.35 51.22L15.35 63.56ZM23.28 36.04L35.39 36.04L35.39 40.79C35.39 42.05 34.88 43.25 33.98 44.14C33.08 45.03 31.86 45.53 30.59 45.53L23.28 45.53L23.28 51.22L30.59 51.22C31.98 51.22 33.35 50.95 34.63 50.43C35.91 49.91 37.08 49.14 38.06 48.17C39.04 47.2 39.82 46.05 40.35 44.78C40.88 43.52 41.15 42.16 41.15 40.79L41.15 40.79L41.15 30.35L23.28 30.35L23.28 36.04Z" fill="#A78BFA" fill-opacity="1.000000" fill-rule="nonzero"/>
</svg>
